<svg xmlns="http://www.w3.org/2000/svg" version="1.1" xmlns:xlink="http://www.w3.org/1999/xlink" width="512" height="512" x="0" y="0" viewBox="0 0 512 512" style="enable-background:new 0 0 512 512" xml:space="preserve"><g><path fill="#cbe2ff" d="m256.522 496.333 96.354-27.793c61.613-48.365 101.202-123.51 101.202-207.915 0-129.719-93.489-237.588-216.761-259.943C104.655 10.253 0 120.9 0 256c0 71.244 28.569 135.165 75.536 181.573l10.563 9.899z" opacity="1" data-original="#cbe2ff"></path><path fill="#bed8fb" d="M256 0c-11.024 0-21.886.698-32.543 2.05C349.476 18.038 446.914 125.64 446.914 256c0 95.61-52.415 178.974-130.076 222.935l109.058-31.458C478.709 400.582 512 332.184 512 256 512 114.615 397.385 0 256 0z" opacity="1" data-original="#bed8fb"></path><path fill="#efc984" d="M334.886 306.987a55.659 55.659 0 0 0 27.497-48.027l-.028-87.988c0-58.738-47.616-106.354-106.354-106.354s-106.354 47.616-106.354 106.354l-.028 87.988a55.657 55.657 0 0 0 27.497 48.027l11.997 7.036a132.221 132.221 0 0 0 133.778 0z" opacity="1" data-original="#efc984"></path><path fill="#eabc6b" d="M362.354 170.972c0-44.092-26.832-81.916-65.058-98.038v252.623a132.162 132.162 0 0 0 25.592-11.534l11.997-7.036a55.659 55.659 0 0 0 27.497-48.027l-.028-87.988z" opacity="1" data-original="#eabc6b"></path><path fill="#ffddce" d="m256 418.104 67.48-47.486-27.239-32.992v-75.207h-80.482v75.207l-27.239 32.992z" opacity="1" data-original="#ffddce"></path><path fill="#4a80aa" d="m387.573 355.203-74.522-14.342c-11.766 19.162-32.916 31.943-57.051 31.943s-45.285-12.781-57.051-31.943l-74.522 14.342c-28.38 5.462-48.89 30.296-48.89 59.196v23.174c39.91 39.667 92.827 66.253 151.788 72.824 4.422.493 8.897.222 13.242-.736l18.955-4.18a29.12 29.12 0 0 1 13.624.26 29.176 29.176 0 0 0 18.624-1.318c58.042-24.285 105.575-68.671 133.875-124.479-8.737-12.533-22.168-21.68-38.072-24.741z" opacity="1" data-original="#4a80aa"></path><path fill="#407093" d="M436.463 414.399c0-16.318-6.541-31.337-17.343-42.307-37.636 73.834-110.035 126.985-195.638 137.854a258.447 258.447 0 0 0 31.666 2.052h.026c.333.001 1.179.002 1.65 0h.026c70.073-.228 133.516-28.61 179.612-74.425v-23.174z" opacity="1" data-original="#407093"></path><path fill="#e28086" d="M261.178 505.117c9.536-27.607 29.332-90.05 34.041-145.019-11.02 7.989-24.567 12.706-39.219 12.706s-28.199-4.717-39.219-12.706c4.833 56.421 25.564 120.725 34.777 147.14z" opacity="1" data-original="#e28086"></path><path fill="#dd636e" d="M250.768 504.961a730.16 730.16 0 0 0 2.458 7.007c5.249.055 3.424.022 5.548 0a737.884 737.884 0 0 0 3.502-10.051 252.509 252.509 0 0 1-11.508 3.044z" opacity="1" data-original="#dd636e"></path><path fill="#ffddce" d="M327.324 163.855c-28.418-30.607-33.694-58.413-33.694-58.413-14.116 37.04-49.967 63.355-91.964 63.355-1.285 0-2.564-.025-3.837-.073-9.664-.371-17.69 7.375-17.69 17.046v31.07c.625 41.373 34.338 74.725 75.861 74.725 41.522 0 75.235-33.351 75.861-74.725v-41.405c0-4.292-1.617-8.435-4.537-11.58z" opacity="1" data-original="#ffddce"></path><path fill="#ffcbbe" d="M327.324 163.855c-17.072-18.387-25.786-35.754-30.028-46.698v96.257c-.575 38.004-29.074 69.218-65.892 74.053A75.713 75.713 0 0 0 256 291.565c41.522 0 75.235-33.352 75.861-74.725v-41.405c0-4.292-1.617-8.435-4.537-11.58z" opacity="1" data-original="#ffcbbe"></path><g fill="#365e7d"><path d="M171.879 343.452c-3.239 1.985-3.883 6.423-1.341 9.246l15.779 17.527a6.076 6.076 0 0 1-.48 8.608l-10.404 9.244c-2.185 1.941-3.265 4.873-2.75 7.749 5.813 32.476 57.771 94.503 76.568 116.09 1.325.032 2.652.055 3.982.069-9.093-25.471-37.475-110.116-37.475-174.36v-21.064zM340.121 343.452l-43.878-26.89v21.064c0 64.244-28.382 148.889-37.475 174.36 1.33-.013 2.657-.036 3.982-.069 18.797-21.587 70.755-83.614 76.568-116.09.515-2.877-.566-5.808-2.75-7.749l-10.404-9.244a6.076 6.076 0 0 1-.48-8.608l15.779-17.527c2.541-2.824 1.897-7.262-1.342-9.247z" fill="#365e7d" opacity="1" data-original="#365e7d"></path></g><path fill="#ffddce" d="M343.362 175.56H331.86v38h11.502c10.496 0 19.003-8.51 19-19.006-.003-10.49-8.509-18.994-19-18.994z" opacity="1" data-original="#ffddce"></path></g></svg>